# xmcd
# 
# Track frame offsets:
#     150
#     21396
#     42936
#     64008
#     84293
#     103807
#     125531
#     148772
#     170407
#     191451
# 
# Disc length: 2848
# 
# Revision: 1
# Processed by: cddbd v1.5.2PL0 Copyright (c) Steve Scherf et al.
# Submitted via: fre:ac v1.0.31
# 
DISCID=870b1e0a
DTITLE=Jazz Funk Soul - Life And Times
DYEAR=2019
DGENRE=Jazz
TTITLE0=Exotic
TTITLE1=Blacksmith
TTITLE2=Walkin' With You
TTITLE3=Windfall
TTITLE4=Ready Freddie
TTITLE5=Fifth Ward
TTITLE6=Sunset Rock
TTITLE7=Room w Vu
TTITLE8=Where You're At
TTITLE9=Cadiwampus
EXTD=YEAR: 2019
EXTT0=
EXTT1=
EXTT2=
EXTT3=
EXTT4=
EXTT5=
EXTT6=
EXTT7=
EXTT8=
EXTT9=
PLAYORDER=
